<svg id="Layer_1" data-name="Layer 1" xmlns="http://www.w3.org/2000/svg" xmlns:xlink="http://www.w3.org/1999/xlink" viewBox="0 0 512 512"><defs><radialGradient id="radial-gradient" cx="-336.56" cy="475.72" r="320.73" gradientTransform="translate(945.73 -1066.49) scale(2.1 2.1)" gradientUnits="userSpaceOnUse"><stop offset="0" stop-color="#cce3ee"/><stop offset="0.02" stop-color="#b0d9ea"/><stop offset="0.07" stop-color="#7bc6e3"/><stop offset="0.12" stop-color="#4fb6dd"/><stop offset="0.17" stop-color="#2da9d9"/><stop offset="0.22" stop-color="#14a0d6"/><stop offset="0.26" stop-color="#059bd4"/><stop offset="0.29" stop-color="#0099d3"/><stop offset="0.65" stop-color="#006e98"/><stop offset="0.89" stop-color="#0e3e6c"/><stop offset="1" stop-color="#152757"/></radialGradient></defs><title>wordpress-other</title><path d="M255.79,4C117,4,4.27,116.73,4.27,255.86,4.27,395.27,117,508,255.79,508c139.1,0,251.94-112.69,251.94-252.1C507.73,116.73,394.9,4,255.79,4ZM82,178.33c30.57,83.49,60.72,166,91,249.48C76.17,381.29,41,266.11,82,178.33ZM315.53,437.5c-36.23,12-73,12.59-109.79,3.18-2.9-.82-3.88-1.93-2.78-5.12,18.53-54.27,37.07-107.84,56.43-163.5,6.07,17,11.75,32.39,17.27,47.62,14,37.65,27.24,75,41.22,113.11C319.26,436.11,318.29,436.52,315.53,437.5Zm21.85-106.61C319.4,278,302,225.12,284,172.24c-1.94-6.51-1.94-5.81,5-6.51,4.7-.43,9.12-.84,13.82-1.39,5.39-.27,8.85-3.6,8.3-8.17s-3.6-7.61-9.4-6.92c-12.16.27-24.06.69-36.23,1.66-20.46,1-40.65-.41-61.11-1.66-4.15-.69-8.3,0-10.24,4.56-1.93,5,1.1,9.7,6.92,10.52,5.25.55,10.51,1,15.9,1.39,2.76,0,4.15,1,5.11,3.73,9,25.06,18.25,50.54,27.51,75.59a7.64,7.64,0,0,1,0,5.54c-13.41,39.88-26.68,80.3-40,120,0,.55-.55,1.11-1.39,1.94-2.21-6.51-4.28-12.46-6.36-18.56C181.54,293.79,161.21,233,141,172.24c-2.35-6.51-2.35-5.81,4.57-6.51,4.15-.43,8.57-.84,13-1.39,6.22-.27,9.53-3.18,9.26-7.75,0-5.12-3.74-8-10.24-7.33-17.56.69-35.12,2.21-53,2.21a18.91,18.91,0,0,1-7.33-1c61.27-97.89,203-115.06,286.78-35.87-24.75,1.53-39,22.43-31.8,46.53,3.33,10.65,9.4,20.07,15.35,29.61,13,20.91,19.91,43.62,16.45,68.26-1.66,11.07-3.87,21.87-7.87,31.84-8.72,25-15.63,50.26-23.09,75.59a50,50,0,0,0-1.94,5.26C346.09,357.33,341.94,344.32,337.38,330.89Zm54.75,58.85a178.19,178.19,0,0,1-40.38,31.42c3.45-10.11,6.36-19.38,9.68-28.65,17.56-50,34.7-100.1,52.26-150.36a175.93,175.93,0,0,0,10.65-70.33c-.14-1.38-1.51-3.18,1.25-3.73a182.21,182.21,0,0,1,21,76.55C449.38,300.71,430.85,349.31,392.13,389.74Z" fill="url(#radial-gradient)"/><path d="M257.89,6.14C119.06,6.14,6.37,118.83,6.37,258c0,139.41,112.69,252.1,251.53,252.1,139.1,0,251.94-112.69,251.94-252.1C509.83,118.83,397,6.14,257.89,6.14ZM84.07,180.43c30.57,83.49,60.72,166,91,249.48C78.27,383.39,43.08,268.21,84.07,180.43ZM317.63,439.6c-36.23,12-73,12.59-109.79,3.18-2.9-.82-3.88-1.93-2.78-5.12,18.53-54.27,37.07-107.84,56.43-163.5,6.07,17,11.75,32.39,17.27,47.62,14,37.65,27.24,75,41.22,113.11C321.36,438.21,320.39,438.63,317.63,439.6ZM339.48,333c-18-52.88-35.4-105.77-53.38-158.65-1.94-6.51-1.94-5.81,5-6.51,4.7-.43,9.12-.84,13.82-1.39,5.39-.27,8.85-3.6,8.3-8.17s-3.6-7.61-9.4-6.92c-12.16.27-24.06.69-36.23,1.66-20.46,1-40.65-.41-61.11-1.66-4.15-.69-8.3,0-10.24,4.56-1.93,5,1.1,9.7,6.92,10.52,5.25.55,10.51,1,15.9,1.39,2.76,0,4.15,1,5.11,3.73,9,25.06,18.25,50.54,27.51,75.59a7.64,7.64,0,0,1,0,5.54c-13.41,39.88-26.68,80.3-40,120,0,.55-.55,1.11-1.39,1.94-2.21-6.51-4.28-12.46-6.36-18.56-20.32-60.22-40.65-121-60.84-181.77-2.35-6.51-2.35-5.81,4.57-6.51,4.15-.43,8.57-.84,13-1.39,6.22-.27,9.53-3.18,9.26-7.75,0-5.12-3.74-8-10.24-7.33-17.56.69-35.12,2.21-53,2.21a18.91,18.91,0,0,1-7.33-1c61.27-97.89,203-115.06,286.78-35.87-24.75,1.53-39,22.43-31.8,46.53,3.33,10.65,9.4,20.07,15.35,29.61,13,20.91,19.91,43.62,16.45,68.26-1.66,11.07-3.87,21.87-7.87,31.84-8.72,25-15.63,50.26-23.09,75.59a50,50,0,0,0-1.94,5.26C348.19,359.43,344,346.42,339.48,333Zm54.75,58.85a178.19,178.19,0,0,1-40.38,31.42c3.45-10.11,6.36-19.38,9.68-28.65,17.56-50,34.7-100.1,52.26-150.36a175.93,175.93,0,0,0,10.65-70.33c-.14-1.38-1.51-3.18,1.25-3.73a182.21,182.21,0,0,1,21,76.55C451.48,302.81,432.94,351.41,394.23,391.84Z" fill="none" stroke="#0f2975" stroke-width="2"/><path d="M253.7,1.94C114.86,1.94,2.17,114.63,2.17,253.76c0,139.41,112.69,252.1,251.53,252.1,139.1,0,251.94-112.69,251.94-252.1C505.63,114.63,392.8,1.94,253.7,1.94ZM79.88,176.23c30.57,83.49,60.72,166,91,249.48C74.07,379.19,38.89,264,79.88,176.23ZM313.43,435.4c-36.23,12-73,12.59-109.79,3.18-2.9-.82-3.88-1.93-2.78-5.12,18.53-54.27,37.07-107.84,56.43-163.5,6.07,17,11.75,32.39,17.27,47.62,14,37.65,27.24,75,41.22,113.11C317.16,434,316.2,434.42,313.43,435.4Zm21.85-106.61c-18-52.88-35.4-105.77-53.38-158.65-1.94-6.51-1.94-5.81,5-6.51,4.7-.43,9.12-.84,13.82-1.39,5.39-.27,8.85-3.6,8.3-8.17s-3.6-7.61-9.4-6.92c-12.16.27-24.06.69-36.23,1.66-20.46,1-40.65-.41-61.11-1.66-4.15-.69-8.3,0-10.24,4.56-1.93,5,1.1,9.7,6.92,10.52,5.25.55,10.51,1,15.9,1.39,2.76,0,4.15,1,5.11,3.73,9,25.06,18.25,50.54,27.51,75.59a7.64,7.64,0,0,1,0,5.54c-13.41,39.88-26.68,80.3-40,120,0,.55-.55,1.11-1.39,1.94-2.21-6.51-4.28-12.46-6.36-18.56-20.32-60.22-40.65-121-60.84-181.77-2.35-6.51-2.35-5.81,4.57-6.51,4.15-.43,8.57-.84,13-1.39,6.22-.27,9.53-3.18,9.26-7.75,0-5.12-3.74-8-10.24-7.33-17.56.69-35.12,2.21-53,2.21a18.91,18.91,0,0,1-7.33-1c61.27-97.89,203-115.06,286.78-35.87-24.75,1.53-39,22.43-31.8,46.53,3.33,10.65,9.4,20.07,15.35,29.61,13,20.91,19.91,43.62,16.45,68.26-1.66,11.07-3.87,21.87-7.87,31.84-8.72,25-15.63,50.26-23.09,75.59a50,50,0,0,0-1.94,5.26C344,355.23,339.84,342.22,335.28,328.79ZM390,387.64a178.19,178.19,0,0,1-40.38,31.42c3.45-10.11,6.36-19.38,9.68-28.65C376.9,340.42,394,290.3,411.6,240a175.93,175.93,0,0,0,10.65-70.33c-.14-1.38-1.51-3.18,1.25-3.73a182.21,182.21,0,0,1,21,76.55C447.28,298.61,428.75,347.21,390,387.64Z" fill="none" stroke="#cad8e9" stroke-width="2"/><path d="M255.79,4C117,4,4.27,116.73,4.27,255.86,4.27,395.27,117,508,255.79,508c139.1,0,251.94-112.69,251.94-252.1C507.73,116.73,394.9,4,255.79,4ZM82,178.33c30.57,83.49,60.72,166,91,249.48C76.17,381.29,41,266.11,82,178.33ZM315.53,437.5c-36.23,12-73,12.59-109.79,3.18-2.9-.82-3.88-1.93-2.78-5.12,18.53-54.27,37.07-107.84,56.43-163.5,6.07,17,11.75,32.39,17.27,47.62,14,37.65,27.24,75,41.22,113.11C319.26,436.11,318.29,436.52,315.53,437.5Zm21.85-106.61C319.4,278,302,225.12,284,172.24c-1.94-6.51-1.94-5.81,5-6.51,4.7-.43,9.12-.84,13.82-1.39,5.39-.27,8.85-3.6,8.3-8.17s-3.6-7.61-9.4-6.92c-12.16.27-24.06.69-36.23,1.66-20.46,1-40.65-.41-61.11-1.66-4.15-.69-8.3,0-10.24,4.56-1.93,5,1.1,9.7,6.92,10.52,5.25.55,10.51,1,15.9,1.39,2.76,0,4.15,1,5.11,3.73,9,25.06,18.25,50.54,27.51,75.59a7.64,7.64,0,0,1,0,5.54c-13.41,39.88-26.68,80.3-40,120,0,.55-.55,1.11-1.39,1.94-2.21-6.51-4.28-12.46-6.36-18.56C181.54,293.79,161.21,233,141,172.24c-2.35-6.51-2.35-5.81,4.57-6.51,4.15-.43,8.57-.84,13-1.39,6.22-.27,9.53-3.18,9.26-7.75,0-5.12-3.74-8-10.24-7.33-17.56.69-35.12,2.21-53,2.21a18.91,18.91,0,0,1-7.33-1c61.27-97.89,203-115.06,286.78-35.87-24.75,1.53-39,22.43-31.8,46.53,3.33,10.65,9.4,20.07,15.35,29.61,13,20.91,19.91,43.62,16.45,68.26-1.66,11.07-3.87,21.87-7.87,31.84-8.72,25-15.63,50.26-23.09,75.59a50,50,0,0,0-1.94,5.26C346.09,357.33,341.94,344.32,337.38,330.89Zm54.75,58.85a178.19,178.19,0,0,1-40.38,31.42c3.45-10.11,6.36-19.38,9.68-28.65,17.56-50,34.7-100.1,52.26-150.36a175.93,175.93,0,0,0,10.65-70.33c-.14-1.38-1.51-3.18,1.25-3.73a182.21,182.21,0,0,1,21,76.55C449.38,300.71,430.85,349.31,392.13,389.74Z" fill="none" stroke="#8daed4" stroke-width="2"/></svg>